<svg width="160" height="32" viewBox="0 0 160 32" fill="none" xmlns="http://www.w3.org/2000/svg">
<g clip-path="url(#clip0_1141_33818)">
<rect width="160" height="32" fill="white"/>
<path d="M0.340115 7.795C1.58768 7.52159 2.70934 7.38489 3.70797 7.38489C4.70516 7.38489 5.53301 7.40816 6.19153 7.45324V9.12858C7.71119 8.05823 9.33216 7.52159 11.0573 7.52159C13.3253 7.52159 14.9694 8.17166 15.9897 9.47034C17.0101 10.769 17.521 12.9359 17.521 15.9652C17.521 17.5838 17.2836 19.0076 16.806 20.2379C16.3298 21.4682 15.6829 22.4266 14.8666 23.1101C13.3021 24.4771 11.4423 25.1621 9.2873 25.1621C8.35668 25.1621 7.47239 25.0705 6.63296 24.8887V27.8293C7.97026 28.1928 8.83284 28.6146 9.21927 29.0945L8.87916 31.7268H0.340115L0 29.0945C0.293801 28.6844 0.919032 28.2961 1.87135 27.9325V11.5921C1.07679 11.3187 0.453004 10.9319 0 10.4302L0.340115 7.795ZM8.94718 21.6747C10.0819 21.6747 10.9763 21.1672 11.6348 20.1535C12.2919 19.1399 12.6219 17.738 12.6219 15.9492C12.6219 14.1604 12.4395 12.9359 12.0777 12.2742C11.7144 11.614 11.0573 11.2824 10.105 11.2824C8.65338 11.2824 7.49699 11.6241 6.6344 12.3077V21.4013C7.33634 21.5831 8.10775 21.6747 8.94718 21.6747Z" fill="black"/>
<path d="M19.9697 10.324C19.9697 9.9822 19.9812 9.61863 20.0029 9.23033C22.1131 8.09017 24.3796 7.52155 26.8081 7.52155C29.2353 7.52155 30.9763 7.98256 32.03 8.90603C33.0851 9.8295 33.6119 11.3623 33.6119 13.5045V20.7861C34.405 20.9461 35.0288 21.141 35.4832 21.3678V24.3418C34.3268 24.8887 32.6711 25.1621 30.5161 25.1621C30.2889 24.5687 30.0964 23.8517 29.9386 23.0083C28.9632 24.4436 27.1946 25.1621 24.6314 25.1621C23.1117 25.1621 21.8135 24.717 20.7353 23.8285C19.6585 22.9399 19.1187 21.7314 19.1187 20.2044C19.1187 18.6774 19.6238 17.4747 20.6325 16.5978C21.6413 15.7208 23.1436 15.2816 25.1408 15.2816H28.8488V13.6412C28.8488 11.8641 27.9066 10.974 26.0251 10.974C25.3218 10.974 24.7428 11.0424 24.2898 11.1791C24.2435 12.136 24.1075 12.8762 23.8817 13.4012H20.5471C20.1622 12.6028 19.9697 11.5776 19.9697 10.324ZM26.0932 21.6747C27.2496 21.6747 28.1686 21.3329 28.8488 20.6494V17.8455H26.4666C24.834 17.8455 24.0177 18.4723 24.0177 19.7259C24.0177 20.296 24.1929 20.7628 24.5446 21.1279C24.8977 21.4914 25.4129 21.6747 26.0932 21.6747Z" fill="black"/>
<path d="M42.9006 3.48743V7.79503H47.7664V10.6672H42.9006V19.3159C42.9006 20.0459 43.0034 20.5753 43.2074 20.9054C43.4115 21.2356 43.8992 21.4013 44.6706 21.4013C45.4421 21.4013 46.2699 21.2312 47.1542 20.888L48.1745 23.5551C46.4277 24.4437 44.6417 24.8887 42.8167 24.8887C40.9902 24.8887 39.7542 24.4961 39.1087 23.7093C38.4617 22.9225 38.139 21.778 38.139 20.2743V10.6687H36.6078L36.2329 8.58325C36.5947 8.15133 37.3444 7.71795 38.4777 7.28457C38.7498 5.41581 39.3967 4.15058 40.417 3.48888H42.9006V3.48743Z" fill="black"/>
<path d="M49.2967 0.615178C50.5674 0.318503 51.7469 0.170166 52.8353 0.170166C53.9251 0.170166 54.8427 0.203612 55.591 0.271963V8.81882C56.1352 8.45379 56.8617 8.14693 57.7691 7.89534C58.6766 7.6452 59.4813 7.51868 60.1847 7.51868C62.4309 7.51868 63.9838 8.06549 64.8464 9.15912C65.7076 10.2527 66.1389 11.9164 66.1389 14.1502V21.0901C67.0232 21.4318 67.6469 21.8201 68.0102 22.2521L67.6687 24.8843H59.8446L59.5045 22.2521C59.8214 21.8201 60.4452 21.4318 61.3758 21.0901V14.3204C61.3758 13.0901 61.1761 12.264 60.7795 11.8423C60.383 11.4205 59.6622 11.2097 58.6202 11.2097C57.5767 11.2097 56.5664 11.5747 55.5924 12.3033V21.0886C56.4767 21.4304 57.1005 21.8187 57.4638 22.2506L57.1236 24.8829H49.2981L48.958 22.2506C49.275 21.8187 49.8987 21.4304 50.8294 21.0886V4.40651C50.0348 4.1331 49.411 3.74626 48.958 3.24453L49.2967 0.615178Z" fill="black"/>
<path d="M71.0691 7.14492C71.0691 4.77443 71.58 2.99147 72.6004 1.79459C73.6207 0.597712 75.2431 0 77.4647 0C79.6878 0 81.6156 0.603528 83.2481 1.81204C83.2698 1.97201 83.2829 2.2047 83.2829 2.51301C83.2829 2.81986 83.2033 3.32887 83.0441 4.0342C82.8849 4.74098 82.6692 5.31106 82.3986 5.74298H79.5401C79.132 4.96785 78.9164 4.23925 78.8932 3.55428C78.6211 3.5092 78.3939 3.48593 78.213 3.48593C77.3504 3.48593 76.7382 3.72589 76.3764 4.20435C76.0131 4.68281 75.8322 5.54956 75.8322 6.80171V8.10038H81.0381V11.2446H75.8322V20.9185C77.5328 21.2602 78.6906 21.7052 79.3028 22.2521L78.9627 24.8843H69.5393L69.1992 22.2521C69.5162 21.8201 70.14 21.4318 71.0706 21.0901V11.2446H69.5741L69.1992 8.8857C69.6985 8.43051 70.3223 8.16728 71.0706 8.09893V7.14492H71.0691Z" fill="black"/>
<path d="M83.1136 7.79495C84.3829 7.49828 85.5624 7.34994 86.6522 7.34994C87.7406 7.34994 88.6596 7.38339 89.4079 7.45174V21.0915C90.2922 21.4333 90.9159 21.8216 91.2792 22.2535L90.9391 24.8857H83.115L82.7749 22.2535C83.0919 21.8216 83.7157 21.4333 84.6463 21.0915V11.5877C83.8517 11.3143 83.2279 10.9275 82.7749 10.4258L83.1136 7.79495ZM86.975 5.4361C85.0804 5.4361 84.1339 4.57661 84.1339 2.85474C84.1339 1.13431 85.0804 0.273376 86.975 0.273376C88.868 0.273376 89.816 1.13431 89.816 2.85474C89.8146 4.57516 88.868 5.4361 86.975 5.4361Z" fill="black"/>
<path d="M92.9783 7.795C94.2244 7.52159 95.3475 7.38489 96.3462 7.38489C97.3448 7.38489 98.1712 7.40816 98.8297 7.45324V9.16203C99.3971 8.68357 100.151 8.29091 101.092 7.9826C102.033 7.67575 102.934 7.52159 103.797 7.52159C106.018 7.52159 107.579 8.04659 108.475 9.09368C109.37 10.1422 109.819 11.9543 109.819 14.5298V21.093C110.703 21.4348 111.327 21.8231 111.69 22.255L111.35 24.8872H103.526L103.186 22.255C103.503 21.8231 104.127 21.4348 105.057 21.093V14.3233C105.057 13.093 104.858 12.2669 104.461 11.8452C104.065 11.4234 103.355 11.2126 102.335 11.2126C101.315 11.2126 100.293 11.5776 99.2726 12.3062V21.0915C100.157 21.4333 100.781 21.8216 101.144 22.2535L100.804 24.8858H92.9798L92.6396 22.2535C92.9566 21.8216 93.5804 21.4333 94.511 21.0915V11.5878C93.7164 11.3144 93.0941 10.9275 92.6396 10.4258L92.9783 7.795Z" fill="black"/>
<path d="M121.726 0.615178C123.019 0.318503 124.255 0.170166 125.434 0.170166C126.612 0.170166 127.623 0.203612 128.462 0.271963V20.7832C129.142 20.8981 129.766 21.0915 130.333 21.365V24.0656C128.973 24.7956 127.249 25.1592 125.162 25.1592C124.935 25.0443 124.713 24.8407 124.498 24.544C124.282 24.2488 124.163 23.9638 124.14 23.6904C123.641 24.1005 122.996 24.448 122.201 24.7331C121.406 25.0181 120.623 25.1606 119.853 25.1606C117.405 25.1606 115.629 24.4931 114.529 23.161C113.429 21.8274 112.879 19.646 112.879 16.6138C112.879 13.173 113.718 10.7559 115.396 9.36708C116.871 8.13675 118.684 7.52159 120.839 7.52159C121.791 7.52159 122.744 7.63648 123.697 7.86335V4.47922C122.654 4.18255 121.883 3.77389 121.385 3.24889L121.726 0.615178ZM120.57 21.6747C121.862 21.6747 122.906 21.2879 123.699 20.5127V11.3507C122.768 11.1224 121.783 11.009 120.739 11.009C119.696 11.009 118.942 11.47 118.477 12.3935C118.012 13.3169 117.779 14.6956 117.779 16.5294C117.779 18.3648 118.005 19.6809 118.46 20.4778C118.914 21.2748 119.618 21.6747 120.57 21.6747Z" fill="black"/>
<path d="M139.927 25.1606C137.205 25.1606 135.159 24.4305 133.787 22.9719C132.415 21.5132 131.729 19.3944 131.729 16.6138C131.729 14.9282 131.966 13.4754 132.442 12.2553C132.918 11.0366 133.565 10.0956 134.381 9.43539C135.969 8.15852 137.817 7.52155 139.926 7.52155C142.036 7.52155 143.651 8.06254 144.774 9.14453C145.898 10.228 146.459 12.1709 146.459 14.9733C146.459 16.6138 145.653 17.434 144.044 17.434H136.661C136.751 18.8708 137.12 19.8844 137.767 20.4763C138.414 21.0697 139.44 21.3649 140.846 21.3649C141.618 21.3649 142.355 21.2747 143.058 21.0915C143.76 20.9097 144.271 20.7265 144.588 20.5447L145.064 20.2713L146.084 23.0068C145.948 23.1668 145.748 23.366 145.488 23.6045C145.227 23.843 144.57 24.163 143.515 24.5614C142.462 24.9614 141.266 25.1606 139.927 25.1606ZM142.071 14.3916C142.116 14.0731 142.139 13.6863 142.139 13.2296C142.139 12.7744 141.957 12.2902 141.595 11.7768C141.231 11.2634 140.602 11.0075 139.706 11.0075C138.81 11.0075 138.124 11.2809 137.648 11.8277C137.172 12.3745 136.853 13.298 136.696 14.5967L142.071 14.3916Z" fill="black"/>
<path d="M158.401 11.9993C156.677 11.9993 155.486 12.3295 154.829 12.9912V20.8196C156.665 21.1614 157.925 21.6398 158.606 22.255L158.266 24.8872H148.536L148.196 22.255C148.513 21.8231 149.137 21.4348 150.067 21.093V11.5892C149.273 11.3158 148.65 10.929 148.196 10.4273L148.536 7.795C149.782 7.52159 150.905 7.38489 151.904 7.38489C152.902 7.38489 153.729 7.40816 154.387 7.45324V9.60704C154.91 8.99188 155.578 8.48433 156.395 8.08586C157.211 7.68738 157.953 7.48815 158.622 7.48815C159.291 7.48815 159.751 7.54486 160 7.65829L159.897 12.1026C159.444 12.0328 158.945 11.9993 158.401 11.9993Z" fill="black"/>
</g>
<defs>
<clipPath id="clip0_1141_33818">
<rect width="160" height="32" fill="white"/>
</clipPath>
</defs>
</svg>
